# xmcd
#
# Track frame offsets:
#	150
#	15312
#	30635
#	46515
#	61735
#	81465
#	97332
#	114977
#	137522
#	157027
#
# Disc length: 2321 seconds
#
# Revision: 3
# Processed by: cddbd v1.5.1PL2 Copyright (c) Steve Scherf et al.
# Submitted via: dBpowerAMP V4.0
#
DISCID=74090f0a
DTITLE=Pam Tillis - All Of This Love
DYEAR=1995
DGENRE=Country
TTITLE0=Deep Down
TTITLE1=Mandolin Rain
TTITLE2=Sunset Red And Pale Moonlight
TTITLE3=It's Lonely Out There
TTITLE4=The River And The Highway
TTITLE5=You Can't Have A Good Time Without Me
TTITLE6=Betty's Got A Bass Boat
TTITLE7=Tequila Mockingbird
TTITLE8=No Two Ways About It
TTITLE9=All Of This Love
EXTD=
EXTT0=
EXTT1=
EXTT2=
EXTT3=
EXTT4=
EXTT5=
EXTT6=
EXTT7=
EXTT8=
EXTT9=
PLAYORDER=
